<svg xmlns="http://www.w3.org/2000/svg" width="710" height="650" viewBox="0 0 710 650" version="1.1"><path d="M 335.500 8.707 C 304.090 10.053, 269.399 16.991, 241.500 27.504 C 237.650 28.955, 232.250 30.965, 229.500 31.971 C 215.745 37.002, 190.520 50.317, 174 61.265 C 165.305 67.027, 151.802 77.435, 137.122 89.689 L 134.500 91.878 137.673 95.093 L 140.845 98.307 152.673 88.807 C 168.095 76.420, 176.095 70.704, 189.500 62.498 C 228.329 38.726, 275.716 23.169, 322.374 18.876 C 340.025 17.251, 377.113 18.315, 394 20.929 C 419.445 24.868, 452.145 34.087, 470.500 42.495 C 512.390 61.685, 538.990 79.710, 567.029 107.906 C 589.100 130.100, 603.514 149.082, 618.738 176 C 622.315 182.325, 625.408 187.683, 625.611 187.906 C 625.814 188.130, 627.787 187.498, 629.996 186.502 L 634.013 184.690 628.922 175.095 C 622.375 162.755, 607.514 140.395, 596.958 127 C 580.232 105.777, 550.375 78.383, 527.500 63.271 C 499.187 44.568, 480.455 35.301, 448.500 24.189 C 417.054 13.254, 372.339 7.128, 335.500 8.707 M 325.957 47.997 C 278.279 52.319, 233.590 67.979, 194.500 94.063 C 171.083 109.689, 148.486 130.258, 131.401 151.500 C 89.510 203.584, 67.939 268.785, 70.363 336 C 73.750 429.912, 122.337 514.047, 201.669 563.375 C 237.957 585.938, 274.699 598.722, 319 604.196 C 332.579 605.874, 368.535 605.836, 382 604.130 C 450.250 595.481, 510.253 564.339, 556.620 513.500 C 595.053 471.360, 619.875 416.788, 627.122 358.500 C 628.764 345.285, 628.790 309.316, 627.166 295.500 C 618.078 218.181, 578.395 149.022, 516.356 102.379 C 510.227 97.770, 504.953 94, 504.637 94 C 504.321 94, 500.560 91.705, 496.281 88.900 C 485.334 81.725, 458.821 68.920, 443.845 63.574 C 414.502 53.101, 386.908 48.109, 355 47.503 C 344.275 47.299, 331.206 47.521, 325.957 47.997 M 326.500 57.112 C 248.489 64.408, 179.431 102.677, 133.268 164.192 C 104.904 201.990, 88.729 241.645, 81.342 291.500 C 78.686 309.424, 78.945 345.588, 81.866 364.723 C 86.441 394.693, 93.893 418.643, 106.999 445.500 C 146.749 526.957, 224.618 582.612, 315.435 594.476 C 340.350 597.731, 375.746 596.343, 403.500 591.024 C 442.006 583.644, 483.078 564.689, 516 539.105 C 527.171 530.424, 547.245 510.898, 557.229 499 C 581.942 469.549, 602.395 429.190, 611.492 391.919 C 616.803 370.163, 620.539 336.609, 619.500 320 C 619.276 316.425, 618.833 309.364, 618.515 304.310 C 617.104 281.873, 611.076 254.859, 602.463 232.372 C 580.978 176.280, 546.165 132.695, 496.623 99.860 C 448.489 67.959, 383.942 51.740, 326.500 57.112 M 91.870 139.805 C 66.081 174.654, 45.349 222.429, 37.514 265.064 C 31.984 295.155, 30.251 329.801, 32.939 356.500 C 38.334 410.079, 54.975 457.060, 84.474 502 C 96.541 520.382, 107.466 533.660, 124.407 550.530 C 149.227 575.247, 173.268 593.054, 201.576 607.691 C 215.473 614.876, 233.184 623, 234.952 623 C 235.833 623, 238 617.645, 238 615.467 C 238 614.788, 235.413 613.196, 232.250 611.929 C 194.932 596.980, 161.878 574.876, 131.449 544.518 C 85.407 498.585, 56.987 443.978, 45.044 378.500 C 40.856 355.539, 39.735 316.459, 42.563 292 C 45.302 268.314, 52.168 239.911, 60.693 217 C 68.952 194.805, 84.522 165.864, 98.254 147.183 C 100.404 144.258, 101.936 141.277, 101.660 140.557 C 101.384 139.838, 99.850 138.318, 98.252 137.179 L 95.345 135.110 91.870 139.805 M 379.639 188.250 C 377.805 191.137, 364.251 213.975, 349.519 239 C 306.673 311.785, 305.692 313.435, 304.466 314.816 C 303.145 316.303, 303.532 317.103, 296.978 299.347 L 292.861 288.194 294.884 283.347 C 303.619 262.424, 329 193.693, 329 190.963 C 329 189.334, 328.195 187.195, 327.211 186.211 C 325.569 184.569, 323.154 184.438, 297.796 184.614 C 282.602 184.719, 269.519 185.186, 268.723 185.653 C 267.237 186.523, 262.357 197.280, 252.690 221 C 246.308 236.658, 236.495 260.151, 234.520 264.500 C 233.771 266.150, 232.031 270.502, 230.653 274.172 C 229.275 277.842, 227.389 282.003, 226.460 283.420 C 224.346 286.647, 224.806 289.277, 229.270 299.500 C 231.191 303.900, 234.446 311.550, 236.501 316.500 C 238.557 321.450, 244.169 334.725, 248.971 346 C 253.774 357.275, 258.502 368.628, 259.480 371.230 C 260.482 373.900, 261.703 375.683, 262.283 375.325 C 262.848 374.976, 263.009 375.177, 262.641 375.772 C 261.959 376.875, 265.462 387.484, 267.255 389.750 C 268.007 390.699, 275.284 391, 297.467 391 C 324.069 391, 326.823 390.843, 328.167 389.250 C 329.435 387.748, 343.248 364.675, 349.270 354 C 350.356 352.075, 353.380 346.900, 355.990 342.500 C 358.601 338.100, 366.018 325.500, 372.474 314.500 C 398.730 269.760, 404.525 260.071, 405.046 260.036 C 405.346 260.016, 406.537 262.813, 407.692 266.250 C 408.847 269.688, 411.133 276.127, 412.772 280.559 L 415.751 288.618 410.375 302.559 C 402.438 323.141, 400.983 326.941, 389.602 356.812 C 380.229 381.410, 379.290 384.467, 380.149 387.577 L 381.102 391.029 411.271 390.765 L 441.439 390.500 445.112 382 C 447.131 377.325, 455.826 356.400, 464.433 335.500 C 473.041 314.600, 480.739 296.022, 481.541 294.216 C 482.344 292.410, 483 289.797, 483 288.409 C 483 286.307, 478.581 274.203, 475.001 266.500 C 472.329 260.751, 465.533 244.575, 463.027 238 C 461.455 233.875, 459.498 229.150, 458.678 227.500 C 457.386 224.901, 452.537 213.604, 446.014 198 C 444.979 195.525, 443.847 192.150, 443.499 190.500 C 443.150 188.850, 442.210 186.488, 441.409 185.250 C 439.956 183.003, 439.911 183, 411.465 183 L 382.975 183 379.639 188.250 M 386.648 200.250 C 384.381 203.897, 362.389 241.183, 360.254 245 C 359.177 246.925, 354.828 254.350, 350.590 261.500 C 346.353 268.650, 342.379 275.400, 341.760 276.500 C 341.142 277.600, 338.089 282.775, 334.977 288 C 330.065 296.247, 319.245 314.615, 308.468 333 C 298.008 350.845, 287.915 368.124, 285.542 372.250 L 282.810 377 302.155 376.987 L 321.500 376.973 326.601 368.237 C 329.406 363.432, 336.999 350.500, 343.475 339.500 C 349.950 328.500, 357.950 314.775, 361.251 309 C 364.553 303.225, 368.260 296.925, 369.490 295 C 371.656 291.608, 386.723 266.088, 390.744 259 C 391.836 257.075, 395.776 250.325, 399.500 244 C 403.224 237.675, 407.041 231.150, 407.983 229.500 C 408.924 227.850, 413.363 220.366, 417.847 212.869 C 422.331 205.371, 426 198.959, 426 198.619 C 426 198.278, 417.460 198, 407.023 198 C 388.424 198, 388.018 198.045, 386.648 200.250 M 274.679 199.750 C 274.438 200.162, 272.414 205, 270.183 210.500 C 267.951 216, 264.492 224.325, 262.495 229 C 260.499 233.675, 255.928 244.700, 252.339 253.500 C 248.749 262.300, 245.207 270.850, 244.468 272.500 C 243.729 274.150, 241.945 278.363, 240.503 281.862 L 237.880 288.224 246.043 308.362 C 250.533 319.438, 254.808 329.850, 255.544 331.500 C 258.272 337.617, 267 358.987, 267 359.548 C 267 360.900, 271.306 370, 271.946 370 C 272.331 370, 273.651 368.087, 274.881 365.750 C 276.111 363.413, 278.507 359.250, 280.206 356.500 C 281.904 353.750, 286.202 346.550, 289.756 340.500 C 296.094 329.711, 296.198 329.420, 295.135 325.331 C 294.539 323.039, 292.968 318.764, 291.643 315.831 C 286.490 304.420, 282 291.681, 282 288.471 C 282 286.622, 283.758 280.246, 285.906 274.304 C 289.995 262.995, 308.481 213.958, 309.959 210.500 C 311.317 207.324, 314 200.006, 314 199.480 C 314 198.678, 275.150 198.945, 274.679 199.750 M 426.975 221.750 C 412.786 245.756, 411.626 248.026, 412.895 249.295 C 413.503 249.903, 414 251.010, 414 251.755 C 414 252.500, 414.847 254.998, 415.882 257.305 C 416.917 259.612, 419.424 265.775, 421.453 271 C 423.481 276.225, 425.764 281.935, 426.525 283.688 C 428.445 288.111, 428.837 286.688, 417.483 316.500 C 396.604 371.319, 395 375.626, 395 376.860 C 395 377.674, 400.555 378, 414.428 378 L 433.856 378 435.846 372.750 C 436.940 369.863, 439.044 364.800, 440.522 361.500 C 442.837 356.328, 454.458 328.273, 461.439 311 C 462.662 307.975, 464.393 303.925, 465.285 302 C 466.178 300.075, 467.802 296.191, 468.893 293.368 L 470.877 288.237 464.381 272.368 C 460.808 263.641, 454.270 247.500, 449.852 236.500 C 445.435 225.500, 441.247 215.375, 440.546 214 C 439.845 212.625, 438.977 210.262, 438.617 208.750 C 438.257 207.238, 437.585 206, 437.123 206 C 436.662 206, 432.095 213.088, 426.975 221.750 M 650.750 240.256 C 646.313 241.371, 646.256 241.781, 649.030 252.590 C 664.466 312.743, 659.592 381.982, 635.731 441.500 C 614.973 493.279, 578.132 541.160, 534 573.718 C 487.272 608.190, 433.784 628.573, 375.605 634.077 C 358.158 635.727, 324.734 634.729, 307.093 632.031 C 299.720 630.903, 293.583 630.097, 293.458 630.240 C 293.332 630.383, 292.916 632.395, 292.533 634.711 C 291.749 639.458, 291.142 639.079, 302.500 640.934 C 322.664 644.228, 369.084 644.832, 387.500 642.041 C 391.350 641.457, 397.875 640.498, 402 639.909 C 413.416 638.280, 433.083 633.434, 447 628.821 C 511.437 607.460, 564.032 569.824, 603.963 516.500 C 629.872 481.903, 648.076 443.202, 658.412 400.747 C 668.796 358.098, 669.735 309.084, 661.052 263 C 659.543 254.989, 655.848 240.596, 655.123 239.906 C 654.780 239.580, 652.813 239.737, 650.750 240.256 M 274.667 414.667 C 273.334 415.999, 274.058 416.874, 276.750 417.184 L 279.500 417.500 279.773 435.750 L 280.045 454 276.939 454 C 274.901 454, 273.975 454.430, 274.246 455.250 C 274.508 456.041, 277.107 456.608, 281.330 456.796 C 286.678 457.033, 288 456.799, 288 455.615 C 288 454.803, 286.988 453.995, 285.750 453.820 C 283.652 453.522, 283.480 452.942, 283.210 445.250 L 282.919 437 292.460 437 L 302 437 302 445.500 C 302 453.973, 301.992 454, 299.417 454 C 297.794 454, 296.988 454.465, 297.250 455.250 C 297.525 456.075, 299.822 456.500, 304 456.500 C 308.178 456.500, 310.475 456.075, 310.750 455.250 C 311.012 454.465, 310.206 454, 308.583 454 L 306 454 306 435.500 L 306 417 308.500 417 C 310.088 417, 311 416.436, 311 415.454 C 311 414.185, 309.807 413.961, 304.330 414.204 C 300.107 414.392, 297.508 414.959, 297.246 415.750 C 296.987 416.534, 297.796 417, 299.417 417 C 301.992 417, 302 417.027, 302 425.500 L 302 434 292.460 434 L 282.919 434 283.210 425.750 C 283.480 418.058, 283.652 417.478, 285.750 417.180 C 286.988 417.005, 288 416.217, 288 415.430 C 288 414.340, 286.493 414, 281.667 414 C 278.183 414, 275.033 414.300, 274.667 414.667 M 433.500 414.480 C 432.950 414.670, 431.262 415.098, 429.750 415.432 C 428.216 415.770, 427 416.713, 427 417.564 C 427 418.767, 427.742 418.951, 430.500 418.434 L 434 417.777 434 435.889 L 434 454 430.417 454 C 427.997 454, 426.967 454.406, 427.246 455.250 C 427.778 456.862, 439.879 457.521, 441.381 456.019 C 442.160 455.240, 441.865 454.777, 440.332 454.376 C 437.247 453.570, 436.628 447.424, 439.374 444.866 C 440.476 443.840, 441.681 443, 442.052 443 C 442.423 443, 444.925 445.363, 447.613 448.250 L 452.500 453.500 449.691 453.822 C 448.080 454.007, 447.049 454.647, 447.274 455.322 C 447.827 456.981, 460.195 456.915, 460.750 455.250 C 460.990 454.529, 460.324 454, 459.174 454 C 457.482 454, 445.895 443.289, 445.310 441.183 C 444.960 439.923, 455.858 432, 457.942 432 C 459.132 432, 460 431.348, 460 430.454 C 460 429.185, 458.807 428.961, 453.330 429.204 C 449.107 429.392, 446.508 429.959, 446.246 430.750 C 446.004 431.482, 446.696 432, 447.917 432 C 449.063 432, 450 432.450, 450 433 C 450 433.550, 449.654 434, 449.232 434 C 448.809 434, 446.222 435.854, 443.482 438.120 L 438.500 442.240 438 428.382 C 437.492 414.306, 437.142 413.223, 433.500 414.480 M 338.209 427.954 C 333.657 429.075, 330.840 431.855, 331.203 434.871 C 331.645 438.549, 333.908 438.711, 334.627 435.116 C 335.241 432.047, 335.779 431.697, 341.722 430.501 C 344.343 429.974, 345.416 430.325, 347.472 432.381 C 348.862 433.772, 350 435.989, 350 437.310 C 350 439.562, 349.563 439.747, 342.901 440.305 C 338.996 440.632, 334.760 441.582, 333.487 442.416 C 329.058 445.319, 329.426 453.552, 334.098 456.052 C 337.053 457.634, 345.548 456.719, 347.931 454.563 C 349.749 452.917, 349.894 452.934, 350.956 454.917 C 352.757 458.283, 361 457.091, 361 453.465 C 361 451.693, 360.801 451.678, 357.475 453.193 C 354.426 454.583, 352.864 453.116, 353.632 449.585 C 353.882 448.438, 353.801 444.216, 353.453 440.201 C 352.979 434.739, 352.277 432.297, 350.660 430.497 C 348.219 427.779, 343.137 426.741, 338.209 427.954 M 387.741 428.377 C 380.366 431.112, 377.551 435.572, 378.207 443.483 C 378.929 452.190, 384.324 457, 393.367 457 C 398.357 457, 404.583 454.529, 405.480 452.193 C 406.448 449.670, 405.131 449.558, 401.103 451.822 C 393.119 456.309, 384.025 453.521, 381.990 445.962 C 381.378 443.691, 381.154 440.577, 381.491 439.042 C 382.740 433.356, 389.687 429.433, 396.662 430.475 C 400.445 431.040, 400.902 431.426, 401.681 434.721 C 402.613 438.660, 404.633 440.121, 405.613 437.565 C 406.444 435.401, 404.398 430.729, 401.949 429.200 C 398.812 427.241, 391.885 426.840, 387.741 428.377 M 338.263 444.115 C 334.707 445.143, 332.920 449.055, 334.705 451.905 C 336.231 454.341, 342.901 454.415, 346.750 452.037 C 349.419 450.388, 350 449.401, 350 446.515 C 350 443.032, 349.961 443.001, 345.750 443.090 C 343.413 443.140, 340.043 443.601, 338.263 444.115 M 240 451 C 237.203 453.797, 238.885 457.264, 242.817 456.810 C 244.887 456.571, 245.571 455.887, 245.810 453.817 C 246.264 449.885, 242.797 448.203, 240 451" stroke="none" fill="#81eac4" fill-rule="evenodd"/><path d="M 326.500 57.112 C 248.489 64.408, 179.431 102.677, 133.268 164.192 C 104.904 201.990, 88.729 241.645, 81.342 291.500 C 78.686 309.424, 78.945 345.588, 81.866 364.723 C 86.441 394.693, 93.893 418.643, 106.999 445.500 C 146.749 526.957, 224.618 582.612, 315.435 594.476 C 340.350 597.731, 375.746 596.343, 403.500 591.024 C 442.006 583.644, 483.078 564.689, 516 539.105 C 527.171 530.424, 547.245 510.898, 557.229 499 C 581.942 469.549, 602.395 429.190, 611.492 391.919 C 616.803 370.163, 620.539 336.609, 619.500 320 C 619.276 316.425, 618.833 309.364, 618.515 304.310 C 617.104 281.873, 611.076 254.859, 602.463 232.372 C 580.978 176.280, 546.165 132.695, 496.623 99.860 C 448.489 67.959, 383.942 51.740, 326.500 57.112 M 379.639 188.250 C 377.805 191.137, 364.251 213.975, 349.519 239 C 306.673 311.785, 305.692 313.435, 304.466 314.816 C 303.145 316.303, 303.532 317.103, 296.978 299.347 L 292.861 288.194 294.884 283.347 C 303.619 262.424, 329 193.693, 329 190.963 C 329 189.334, 328.195 187.195, 327.211 186.211 C 325.569 184.569, 323.154 184.438, 297.796 184.614 C 282.602 184.719, 269.519 185.186, 268.723 185.653 C 267.237 186.523, 262.357 197.280, 252.690 221 C 246.308 236.658, 236.495 260.151, 234.520 264.500 C 233.771 266.150, 232.031 270.502, 230.653 274.172 C 229.275 277.842, 227.389 282.003, 226.460 283.420 C 224.346 286.647, 224.806 289.277, 229.270 299.500 C 231.191 303.900, 234.446 311.550, 236.501 316.500 C 238.557 321.450, 244.169 334.725, 248.971 346 C 253.774 357.275, 258.502 368.628, 259.480 371.230 C 260.482 373.900, 261.703 375.683, 262.283 375.325 C 262.848 374.976, 263.009 375.177, 262.641 375.772 C 261.959 376.875, 265.462 387.484, 267.255 389.750 C 268.007 390.699, 275.284 391, 297.467 391 C 324.069 391, 326.823 390.843, 328.167 389.250 C 329.435 387.748, 343.248 364.675, 349.270 354 C 350.356 352.075, 353.380 346.900, 355.990 342.500 C 358.601 338.100, 366.018 325.500, 372.474 314.500 C 398.730 269.760, 404.525 260.071, 405.046 260.036 C 405.346 260.016, 406.537 262.813, 407.692 266.250 C 408.847 269.688, 411.133 276.127, 412.772 280.559 L 415.751 288.618 410.375 302.559 C 402.438 323.141, 400.983 326.941, 389.602 356.812 C 380.229 381.410, 379.290 384.467, 380.149 387.577 L 381.102 391.029 411.271 390.765 L 441.439 390.500 445.112 382 C 447.131 377.325, 455.826 356.400, 464.433 335.500 C 473.041 314.600, 480.739 296.022, 481.541 294.216 C 482.344 292.410, 483 289.797, 483 288.409 C 483 286.307, 478.581 274.203, 475.001 266.500 C 472.329 260.751, 465.533 244.575, 463.027 238 C 461.455 233.875, 459.498 229.150, 458.678 227.500 C 457.386 224.901, 452.537 213.604, 446.014 198 C 444.979 195.525, 443.847 192.150, 443.499 190.500 C 443.150 188.850, 442.210 186.488, 441.409 185.250 C 439.956 183.003, 439.911 183, 411.465 183 L 382.975 183 379.639 188.250 M 386.648 200.250 C 384.381 203.897, 362.389 241.183, 360.254 245 C 359.177 246.925, 354.828 254.350, 350.590 261.500 C 346.353 268.650, 342.379 275.400, 341.760 276.500 C 341.142 277.600, 338.089 282.775, 334.977 288 C 330.065 296.247, 319.245 314.615, 308.468 333 C 298.008 350.845, 287.915 368.124, 285.542 372.250 L 282.810 377 302.155 376.987 L 321.500 376.973 326.601 368.237 C 329.406 363.432, 336.999 350.500, 343.475 339.500 C 349.950 328.500, 357.950 314.775, 361.251 309 C 364.553 303.225, 368.260 296.925, 369.490 295 C 371.656 291.608, 386.723 266.088, 390.744 259 C 391.836 257.075, 395.776 250.325, 399.500 244 C 403.224 237.675, 407.041 231.150, 407.983 229.500 C 408.924 227.850, 413.363 220.366, 417.847 212.869 C 422.331 205.371, 426 198.959, 426 198.619 C 426 198.278, 417.460 198, 407.023 198 C 388.424 198, 388.018 198.045, 386.648 200.250 M 274.679 199.750 C 274.438 200.162, 272.414 205, 270.183 210.500 C 267.951 216, 264.492 224.325, 262.495 229 C 260.499 233.675, 255.928 244.700, 252.339 253.500 C 248.749 262.300, 245.207 270.850, 244.468 272.500 C 243.729 274.150, 241.945 278.363, 240.503 281.862 L 237.880 288.224 246.043 308.362 C 250.533 319.438, 254.808 329.850, 255.544 331.500 C 258.272 337.617, 267 358.987, 267 359.548 C 267 360.900, 271.306 370, 271.946 370 C 272.331 370, 273.651 368.087, 274.881 365.750 C 276.111 363.413, 278.507 359.250, 280.206 356.500 C 281.904 353.750, 286.202 346.550, 289.756 340.500 C 296.094 329.711, 296.198 329.420, 295.135 325.331 C 294.539 323.039, 292.968 318.764, 291.643 315.831 C 286.490 304.420, 282 291.681, 282 288.471 C 282 286.622, 283.758 280.246, 285.906 274.304 C 289.995 262.995, 308.481 213.958, 309.959 210.500 C 311.317 207.324, 314 200.006, 314 199.480 C 314 198.678, 275.150 198.945, 274.679 199.750 M 426.975 221.750 C 412.786 245.756, 411.626 248.026, 412.895 249.295 C 413.503 249.903, 414 251.010, 414 251.755 C 414 252.500, 414.847 254.998, 415.882 257.305 C 416.917 259.612, 419.424 265.775, 421.453 271 C 423.481 276.225, 425.764 281.935, 426.525 283.688 C 428.445 288.111, 428.837 286.688, 417.483 316.500 C 396.604 371.319, 395 375.626, 395 376.860 C 395 377.674, 400.555 378, 414.428 378 L 433.856 378 435.846 372.750 C 436.940 369.863, 439.044 364.800, 440.522 361.500 C 442.837 356.328, 454.458 328.273, 461.439 311 C 462.662 307.975, 464.393 303.925, 465.285 302 C 466.178 300.075, 467.802 296.191, 468.893 293.368 L 470.877 288.237 464.381 272.368 C 460.808 263.641, 454.270 247.500, 449.852 236.500 C 445.435 225.500, 441.247 215.375, 440.546 214 C 439.845 212.625, 438.977 210.262, 438.617 208.750 C 438.257 207.238, 437.585 206, 437.123 206 C 436.662 206, 432.095 213.088, 426.975 221.750 M 31.272 324 C 31.272 326.475, 31.467 327.488, 31.706 326.250 C 31.944 325.012, 31.944 322.988, 31.706 321.750 C 31.467 320.512, 31.272 321.525, 31.272 324 M 274.667 414.667 C 273.334 415.999, 274.058 416.874, 276.750 417.184 L 279.500 417.500 279.773 435.750 L 280.045 454 276.939 454 C 274.901 454, 273.975 454.430, 274.246 455.250 C 274.508 456.041, 277.107 456.608, 281.330 456.796 C 286.678 457.033, 288 456.799, 288 455.615 C 288 454.803, 286.988 453.995, 285.750 453.820 C 283.652 453.522, 283.480 452.942, 283.210 445.250 L 282.919 437 292.460 437 L 302 437 302 445.500 C 302 453.973, 301.992 454, 299.417 454 C 297.794 454, 296.988 454.465, 297.250 455.250 C 297.525 456.075, 299.822 456.500, 304 456.500 C 308.178 456.500, 310.475 456.075, 310.750 455.250 C 311.012 454.465, 310.206 454, 308.583 454 L 306 454 306 435.500 L 306 417 308.500 417 C 310.088 417, 311 416.436, 311 415.454 C 311 414.185, 309.807 413.961, 304.330 414.204 C 300.107 414.392, 297.508 414.959, 297.246 415.750 C 296.987 416.534, 297.796 417, 299.417 417 C 301.992 417, 302 417.027, 302 425.500 L 302 434 292.460 434 L 282.919 434 283.210 425.750 C 283.480 418.058, 283.652 417.478, 285.750 417.180 C 286.988 417.005, 288 416.217, 288 415.430 C 288 414.340, 286.493 414, 281.667 414 C 278.183 414, 275.033 414.300, 274.667 414.667 M 433.500 414.480 C 432.950 414.670, 431.262 415.098, 429.750 415.432 C 428.216 415.770, 427 416.713, 427 417.564 C 427 418.767, 427.742 418.951, 430.500 418.434 L 434 417.777 434 435.889 L 434 454 430.417 454 C 427.997 454, 426.967 454.406, 427.246 455.250 C 427.778 456.862, 439.879 457.521, 441.381 456.019 C 442.160 455.240, 441.865 454.777, 440.332 454.376 C 437.247 453.570, 436.628 447.424, 439.374 444.866 C 440.476 443.840, 441.681 443, 442.052 443 C 442.423 443, 444.925 445.363, 447.613 448.250 L 452.500 453.500 449.691 453.822 C 448.080 454.007, 447.049 454.647, 447.274 455.322 C 447.827 456.981, 460.195 456.915, 460.750 455.250 C 460.990 454.529, 460.324 454, 459.174 454 C 457.482 454, 445.895 443.289, 445.310 441.183 C 444.960 439.923, 455.858 432, 457.942 432 C 459.132 432, 460 431.348, 460 430.454 C 460 429.185, 458.807 428.961, 453.330 429.204 C 449.107 429.392, 446.508 429.959, 446.246 430.750 C 446.004 431.482, 446.696 432, 447.917 432 C 449.063 432, 450 432.450, 450 433 C 450 433.550, 449.654 434, 449.232 434 C 448.809 434, 446.222 435.854, 443.482 438.120 L 438.500 442.240 438 428.382 C 437.492 414.306, 437.142 413.223, 433.500 414.480 M 338.209 427.954 C 333.657 429.075, 330.840 431.855, 331.203 434.871 C 331.645 438.549, 333.908 438.711, 334.627 435.116 C 335.241 432.047, 335.779 431.697, 341.722 430.501 C 344.343 429.974, 345.416 430.325, 347.472 432.381 C 348.862 433.772, 350 435.989, 350 437.310 C 350 439.562, 349.563 439.747, 342.901 440.305 C 338.996 440.632, 334.760 441.582, 333.487 442.416 C 329.058 445.319, 329.426 453.552, 334.098 456.052 C 337.053 457.634, 345.548 456.719, 347.931 454.563 C 349.749 452.917, 349.894 452.934, 350.956 454.917 C 352.757 458.283, 361 457.091, 361 453.465 C 361 451.693, 360.801 451.678, 357.475 453.193 C 354.426 454.583, 352.864 453.116, 353.632 449.585 C 353.882 448.438, 353.801 444.216, 353.453 440.201 C 352.979 434.739, 352.277 432.297, 350.660 430.497 C 348.219 427.779, 343.137 426.741, 338.209 427.954 M 387.741 428.377 C 380.366 431.112, 377.551 435.572, 378.207 443.483 C 378.929 452.190, 384.324 457, 393.367 457 C 398.357 457, 404.583 454.529, 405.480 452.193 C 406.448 449.670, 405.131 449.558, 401.103 451.822 C 393.119 456.309, 384.025 453.521, 381.990 445.962 C 381.378 443.691, 381.154 440.577, 381.491 439.042 C 382.740 433.356, 389.687 429.433, 396.662 430.475 C 400.445 431.040, 400.902 431.426, 401.681 434.721 C 402.613 438.660, 404.633 440.121, 405.613 437.565 C 406.444 435.401, 404.398 430.729, 401.949 429.200 C 398.812 427.241, 391.885 426.840, 387.741 428.377 M 338.263 444.115 C 334.707 445.143, 332.920 449.055, 334.705 451.905 C 336.231 454.341, 342.901 454.415, 346.750 452.037 C 349.419 450.388, 350 449.401, 350 446.515 C 350 443.032, 349.961 443.001, 345.750 443.090 C 343.413 443.140, 340.043 443.601, 338.263 444.115 M 240 451 C 237.203 453.797, 238.885 457.264, 242.817 456.810 C 244.887 456.571, 245.571 455.887, 245.810 453.817 C 246.264 449.885, 242.797 448.203, 240 451" stroke="none" fill="#3b3d45" fill-rule="evenodd"/></svg>